<svg width="116" height="276" viewBox="0 0 116 276" fill="none" xmlns="http://www.w3.org/2000/svg">
<g opacity="0.65">
<path d="M59.35 157.331C58.944 162.106 62.185 187.38 63.858 197.29C64.654 201.985 66.838 209.634 66.052 213.696C64.93 219.356 64.606 226.681 65.224 230.947C65.613 233.537 66.839 245.484 65.085 249.853C64.167 252.145 62.485 263.887 62.485 263.887C58.104 274.95 60.577 274.405 60.577 274.405C61.933 276.07 64.257 274.536 64.257 274.536C66.027 275.664 67.252 274.268 67.252 274.268C68.772 275.526 70.543 274.113 70.543 274.113C72.451 275.104 74.221 273.277 74.221 273.277C75.318 273.829 75.586 273.132 75.586 273.132C78.875 272.921 73.751 262.395 73.751 262.395C72.523 252.941 74.968 247.679 74.968 247.679C82.976 223.931 83.383 217.629 80.182 208.679C79.28 206.096 79.052 205.073 79.467 203.951C80.426 201.362 79.727 190.949 80.897 186.815C83.154 178.84 85.38 158.616 86.54 149.179C88.099 136.468 81.017 119.425 81.017 119.425C79.466 112.49 81.74 87.779 81.74 87.779C84.916 92.72 84.794 101.443 84.794 101.443C84.29 110.592 92.185 124.574 92.185 124.574C95.978 130.352 97.415 135.834 97.415 136.24C97.415 137.905 97.05 141.934 97.05 141.934L97.196 145.443C97.261 146.337 97.764 149.414 97.683 150.901C97.09 160.054 98.544 158.332 98.544 158.332C99.771 158.332 101.12 150.967 101.12 150.967C101.12 152.866 100.656 158.552 101.68 160.697C102.906 163.255 103.807 160.258 103.823 159.656C104.147 148.003 104.848 151.056 104.848 151.056C105.529 160.51 106.367 162.645 107.869 161.906C109.006 161.363 107.966 150.561 107.966 150.561C109.915 156.978 111.393 158 111.393 158C114.608 160.258 112.62 154.021 112.173 152.786C109.793 146.224 109.72 143.95 109.72 143.95C112.693 149.846 114.934 149.628 114.934 149.628C117.833 148.702 112.4 140.352 109.216 136.352C107.591 134.314 105.496 131.585 104.888 129.965C103.897 127.22 103.148 118.396 103.148 118.396C102.848 107.983 100.274 103.46 100.274 103.46C95.873 96.415 95.044 83.273 95.044 83.273L94.85 61.086C93.306 45.951 82.155 45.842 82.155 45.842C70.883 44.164 69.314 40.523 69.314 40.523C66.927 37.087 68.291 30.501 68.291 30.501C70.272 28.89 71.036 24.612 71.036 24.612C74.325 22.09 74.164 18.4 72.645 18.44C71.426 18.472 71.702 17.462 71.702 17.462C73.759 0.848005 59.01 0 59.01 0H56.758C56.758 0 42.003 0.848007 44.057 17.458C44.057 17.458 44.333 18.469 43.103 18.436C41.588 18.396 41.446 22.086 44.723 24.608C44.723 24.608 45.486 28.884 47.468 30.497C47.468 30.497 48.833 37.083 46.445 40.519C46.445 40.519 44.882 44.16 33.605 45.838C33.605 45.838 22.4347 45.947 20.9155 61.082L20.7048 83.269C20.7048 83.269 19.8925 96.411 15.4737 103.456C15.4737 103.456 12.9115 107.98 12.6154 118.392C12.6154 118.392 11.8645 127.216 10.8775 129.961C10.2759 131.573 8.18189 134.302 6.54399 136.348C3.33229 140.34 -2.06551 148.673 0.822091 149.624C0.822091 149.624 3.07489 149.842 6.03589 143.946C6.03589 143.946 5.97449 146.204 3.59899 152.782C3.13219 154.001 1.14619 160.238 4.36329 157.996C4.36329 157.996 5.8531 156.973 7.7898 150.557C7.7898 150.557 6.75079 161.359 7.90709 161.902C9.41829 162.643 10.2426 160.506 10.9242 151.052C10.9242 151.052 11.6231 147.999 11.9472 159.652C11.9632 160.254 12.8448 163.251 14.0759 160.693C15.1149 158.548 14.6481 152.871 14.6481 150.963C14.6481 150.963 15.9805 158.328 17.2263 158.328C17.2263 158.328 18.6921 160.05 18.0906 150.897C17.9932 149.402 18.5174 146.333 18.5827 145.439L18.7241 141.93C18.7241 141.93 18.3587 137.91 18.3587 136.236C18.3587 135.822 19.7965 130.348 23.5884 124.57C23.5884 124.57 31.475 110.581 30.9669 101.439C30.9669 101.439 30.8575 92.716 34.033 87.775C34.033 87.775 36.287 112.484 34.76 119.421C34.76 119.421 27.6658 136.464 29.2303 149.175C30.3827 158.637 32.605 178.835 34.867 186.811C36.049 190.937 35.35 201.348 36.297 203.947C36.723 205.077 36.499 206.117 35.582 208.675C32.398 217.625 32.803 223.928 40.812 247.675C40.812 247.675 43.276 252.937 42.031 262.391C42.031 262.391 36.914 272.917 40.191 273.128C40.191 273.128 40.447 273.825 41.556 273.273C41.556 273.273 43.326 275.1 45.238 274.109C45.238 274.109 47.01 275.523 48.523 274.264C48.523 274.264 49.737 275.66 51.507 274.532C51.507 274.532 53.831 276.099 55.211 274.401C55.211 274.401 57.664 274.946 53.297 263.883C53.297 263.883 51.624 252.155 50.703 249.849C48.945 245.481 50.187 233.509 50.561 230.943C51.166 226.653 50.842 219.346 49.737 213.692C48.929 209.64 51.118 201.989 51.926 197.286C53.586 187.386 56.841 162.11 56.434 157.327L57.779 157.8C58.742 157.802 59.35 157.331 59.35 157.331Z" fill="#522ED2"/>
</g>
</svg>
