<svg width="114" height="165" viewBox="0 0 114 165" fill="none" xmlns="http://www.w3.org/2000/svg">
<path d="M105.944 114.796H6.90295C14.0475 110.665 15.385 100.896 16.0283 93.481C17.0949 81.444 16.4346 69.288 16.6547 57.216C16.9933 38.17 17.3489 13.858 36.8355 3.95402C44.5048 0.0600154 52.9699 -0.244002 61.384 0.110998C66.92 0.330998 72.541 1.95601 77.349 4.68201C84.985 9.01601 90.115 16.33 92.688 24.626C94.72 31.161 95.2609 38.119 95.702 44.925C96.1759 52.273 96.243 59.654 96.243 67.019C96.243 73.96 96.142 80.919 96.447 87.877C96.684 93.345 97.09 98.932 98.647 104.215C99.24 106.246 100.036 108.244 101.153 110.039H101.17C102.321 111.952 103.98 113.679 105.944 114.796Z" fill="#242A62"/>
<path d="M110.584 147.878C92.841 158.679 74.979 164.046 56.9996 164.114C39.0198 164.046 21.1585 158.679 3.41568 147.878C2.25358 147.163 1.31938 146.133 0.722575 144.906C0.125875 143.68 -0.108624 142.308 0.0465765 140.953C0.723777 135.586 1.73958 127.274 1.73958 127.274C2.34908 122.296 4.90548 117.691 8.90108 114.796C9.61208 114.271 10.374 113.814 11.1697 113.408L37.8008 100.05H76.198L102.83 113.408C103.625 113.814 104.387 114.271 105.098 114.796C109.094 117.691 111.65 122.296 112.26 127.274C112.26 127.274 113.275 135.586 113.953 140.953C114.274 143.73 112.954 146.405 110.584 147.878Z" fill="#F05FA1"/>
<path d="M70.002 90.552L69.985 90.569C69.833 90.061 69.68 89.553 69.562 89.079C69.697 89.553 69.85 90.044 70.002 90.552ZM61.147 0.0940001H59.81C59.81 0.0940001 59.505 0.0770035 58.9635 0.0600035C59.488 0.0430035 60.233 0.0430001 61.147 0.0940001Z" fill="#242A62"/>
<path d="M56.7623 0.0939941C51.0737 0.364994 45.3852 1.906 40.4416 4.75C32.5183 9.304 27.3546 17.058 24.8997 25.76C22.6649 33.717 22.2755 42.267 21.9369 50.478C19.7699 52.002 21.1243 56.387 21.7338 58.351C21.6153 68.644 21.9369 78.972 21.3952 89.265C21.0227 96.444 20.4809 104.841 16.1638 110.902C13.7427 112.121 11.0847 113.188 8.90065 114.796H6.90295C15.1649 110.022 15.8759 97.849 16.3161 89.435C17.0611 75.433 16.2484 61.381 16.9933 47.38C17.6367 35.427 18.6017 22.459 26.2372 12.656C30.8422 6.74801 37.445 2.81999 44.6911 1.09299C48.7204 0.127987 52.6652 0.0939941 56.7623 0.0939941Z" fill="#2D387A"/>
<path d="M91.588 56.573C90.911 59.773 89.489 62.973 86.797 64.971C85.882 65.648 84.85 65.919 83.885 66.477C82.818 67.087 82.615 68.56 82.124 69.694C79.229 76.517 75.149 83.204 69.24 87.826C70.341 92.228 72.05 97.595 76.198 100.05C76.198 108.667 71.526 117.979 63.281 121.382C55.6282 124.531 47.2986 121.28 42.5582 114.813C39.4769 110.614 37.8008 105.264 37.8008 100.05C41.6609 97.747 43.557 92.702 44.5728 88.554C36.5649 82.832 31.8921 73.114 29.5219 66.697C25.5772 65.021 23.0546 62.685 21.7341 58.452C21.1076 56.455 20.295 53.577 21.1415 51.528C22.2927 48.768 25.8142 50.749 27.6088 51.63C28.1506 43.859 30.8594 36.257 36.8865 31.076C40.6112 27.877 45.25 25.794 50.0582 24.846C51.0571 24.66 52.0729 24.491 53.0887 24.44L56.4409 16.533C57.5583 19.174 58.6757 21.799 59.793 24.44C63.958 24.677 68.089 26.133 71.729 28.114C80.194 33.21 84.731 41.793 85.256 51.63C86.678 50.817 89.268 49.378 90.894 50.478C92.621 51.647 91.943 54.914 91.588 56.573Z" fill="#F1B2A3"/>
<path d="M70.002 90.551L69.985 90.568C69.731 90.771 69.511 91.008 69.241 91.211C66.819 93.124 64.06 94.665 60.962 95.613C58.0158 96.511 54.816 96.511 51.8702 95.613C49.2533 94.796 46.7882 93.555 44.5733 91.939C44.2855 91.736 44.0315 91.499 43.7606 91.279C44.0823 90.314 44.3701 89.383 44.5733 88.553C46.7882 90.169 49.2533 91.41 51.8702 92.227C54.816 93.124 58.0158 93.124 60.962 92.227C63.806 91.347 66.379 89.975 68.648 88.266C68.851 88.13 69.054 87.978 69.241 87.825L69.376 88.367C69.427 88.587 69.494 88.824 69.562 89.078C69.698 89.552 69.85 90.043 70.002 90.551Z" fill="#FFBFB6"/>
<path d="M91.5881 56.573C90.9961 59.332 89.8781 62.075 87.8471 64.073C86.5091 65.393 84.9521 65.952 83.2931 66.731C80.2621 74.959 75.5051 83.712 68.0391 88.689C81.1431 72.622 85.9001 49.411 75.9281 31.076C75.9621 31.093 75.9961 31.11 76.0301 31.16C82.0401 35.969 84.8501 44.163 85.2401 51.629C86.2391 51.053 87.3391 50.478 88.4901 50.258C89.7431 49.428 91.3511 50.613 91.7411 51.731C92.2661 53.237 91.9101 55.066 91.5881 56.573Z" fill="#FFBFB6"/>
<path d="M42.6736 53.248C42.4538 53.248 42.2361 53.205 42.033 53.121C41.8299 53.037 41.6454 52.914 41.4899 52.758C41.3345 52.603 41.2112 52.418 41.1271 52.215C41.0431 52.012 40.9999 51.794 41 51.574V49.674C41 48.749 41.7486 48 42.6736 48C43.5987 48 44.3473 48.749 44.3473 49.674V51.574C44.3474 51.794 44.3041 52.012 44.22 52.215C44.136 52.418 44.0127 52.603 43.8573 52.758C43.7018 52.913 43.5173 53.037 43.3142 53.121C43.1111 53.205 42.8934 53.248 42.6736 53.248ZM72.153 53.248C71.933 53.248 71.715 53.205 71.512 53.121C71.309 53.037 71.124 52.914 70.969 52.758C70.813 52.603 70.69 52.418 70.606 52.215C70.522 52.012 70.479 51.794 70.479 51.574V49.674C70.479 48.749 71.228 48 72.153 48C73.078 48 73.826 48.749 73.826 49.674V51.574C73.826 51.794 73.783 52.012 73.699 52.215C73.615 52.418 73.492 52.603 73.336 52.758C73.181 52.914 72.996 53.037 72.793 53.121C72.59 53.205 72.372 53.248 72.153 53.248ZM57.4122 71.228C53.3785 71.228 49.3448 69.692 46.2739 66.62C45.6202 65.967 45.6202 64.908 46.2739 64.254C46.9277 63.6 47.9867 63.6 48.6404 64.254C50.9841 66.596 54.0992 67.887 57.4138 67.887C60.727 67.887 63.842 66.596 66.186 64.254C66.839 63.6 67.898 63.6 68.552 64.254C69.206 64.908 69.206 65.967 68.552 66.62C65.481 69.692 61.447 71.228 57.4122 71.228Z" fill="#474747"/>
</svg>
