<svg width="114" height="158" viewBox="0 0 114 158" fill="none" xmlns="http://www.w3.org/2000/svg">
<path d="M93.094 31.444L89.55 52.126H24.449L20.906 31.444C18.12 15.189 30.641 0.341003 47.133 0.341003H66.866C83.359 0.341003 95.879 15.189 93.094 31.444Z" fill="#474747"/>
<path d="M113.857 143.776C113.857 151.447 107.645 157.659 99.9741 157.659H14.0261C10.1821 157.659 6.72006 156.102 4.20206 153.601C1.70006 151.082 0.143066 147.62 0.143066 143.777C0.143066 128.072 6.50407 113.857 16.7921 103.569C23.1701 97.191 31.0731 92.303 39.9031 89.536C45.3041 87.83 51.0361 86.919 57.0001 86.919C62.9641 86.919 68.696 87.83 74.097 89.536C97.142 96.793 113.857 118.33 113.857 143.776Z" fill="#4955A1"/>
<path d="M113.854 143.77C113.854 151.434 107.638 157.65 99.974 157.65H14.026C10.194 157.65 6.72904 156.101 4.20204 153.573C2.32604 151.697 1.03105 149.319 0.472046 146.725C1.40905 146.949 2.40805 147.051 3.42705 147.051H55.93C84.892 147.051 98.3441 115.358 85.6261 94.671C102.522 104.515 113.854 122.818 113.854 143.77Z" fill="black" fill-opacity="0.0705882"/>
<path d="M69.681 78.701V90.621C69.681 97.625 64.004 103.303 57 103.303C49.996 103.303 44.318 97.625 44.318 90.621V78.701H69.681Z" fill="#F1B2A3"/>
<path d="M94.082 50.254C93.326 55.314 90.225 59.094 87.201 58.609C87.143 58.609 87.065 58.589 87.026 58.57V63.513C87.026 71.79 79.505 78.788 72.023 83.731C71.926 83.77 71.868 83.828 71.771 83.867C67.38 86.739 62.247 88.269 57 88.267C51.753 88.269 46.62 86.739 42.229 83.867C42.132 83.828 42.074 83.77 41.977 83.731C34.495 78.788 26.974 71.79 26.974 63.513V58.57C26.919 58.594 26.859 58.608 26.799 58.609C23.775 59.094 20.674 55.314 19.918 50.254C19.143 45.195 21.023 40.698 24.066 40.252C25.093 40.097 26.101 40.388 27.032 41.066C27.71 32.828 34.669 26.334 43.082 26.334H70.918C79.331 26.334 86.29 32.828 86.968 41.066C87.899 40.388 88.907 40.097 89.934 40.252C92.977 40.698 94.857 45.195 94.082 50.254Z" fill="#F1B2A3"/>
<path d="M42.261 55.698C42.041 55.698 41.823 55.655 41.62 55.571C41.417 55.487 41.233 55.363 41.077 55.208C40.922 55.053 40.798 54.868 40.714 54.665C40.63 54.462 40.587 54.244 40.587 54.024V52.124C40.587 51.198 41.336 50.45 42.261 50.45C43.186 50.45 43.934 51.198 43.934 52.124V54.024C43.935 54.244 43.891 54.462 43.807 54.665C43.723 54.868 43.6 55.052 43.444 55.208C43.289 55.363 43.104 55.487 42.901 55.571C42.698 55.655 42.481 55.698 42.261 55.698ZM71.74 55.698C71.52 55.698 71.302 55.655 71.099 55.571C70.896 55.487 70.712 55.363 70.556 55.208C70.401 55.053 70.277 54.868 70.193 54.665C70.109 54.462 70.066 54.244 70.066 54.024V52.124C70.066 51.198 70.815 50.45 71.74 50.45C72.665 50.45 73.413 51.198 73.413 52.124V54.024C73.414 54.244 73.37 54.462 73.286 54.665C73.202 54.868 73.079 55.053 72.924 55.208C72.768 55.363 72.584 55.487 72.38 55.571C72.177 55.655 71.96 55.698 71.74 55.698ZM56.999 73.678C52.966 73.678 48.932 72.141 45.861 69.07C45.207 68.417 45.207 67.358 45.861 66.704C46.515 66.05 47.574 66.05 48.228 66.704C50.571 69.046 53.686 70.337 57.001 70.337C60.314 70.337 63.429 69.046 65.773 66.704C66.426 66.05 67.485 66.05 68.139 66.704C68.793 67.358 68.793 68.417 68.139 69.07C65.068 72.141 61.035 73.678 56.999 73.678Z" fill="#474747"/>
</svg>
